<svg width="584" height="116" viewBox="0 0 584 116" fill="none" xmlns="http://www.w3.org/2000/svg">
<g filter="url(#filter0_d_7_874)">
<rect x="8" y="4" width="568" height="100" rx="50" fill="white"/>
<path d="M59.1169 42.8333H56.3669V41.5C56.3669 41.1463 56.2221 40.8072 55.9642 40.5572C55.7064 40.3071 55.3566 40.1666 54.9919 40.1666C54.6273 40.1666 54.2775 40.3071 54.0197 40.5572C53.7618 40.8072 53.6169 41.1463 53.6169 41.5V42.8333H45.3669V41.5C45.3669 41.1463 45.2221 40.8072 44.9642 40.5572C44.7064 40.3071 44.3566 40.1666 43.9919 40.1666C43.6273 40.1666 43.2775 40.3071 43.0197 40.5572C42.7618 40.8072 42.6169 41.1463 42.6169 41.5V42.8333H39.8669C38.7729 42.8333 37.7237 43.2547 36.9501 44.0049C36.1765 44.755 35.7419 45.7724 35.7419 46.8333V62.8333C35.7419 63.8942 36.1765 64.9116 36.9501 65.6617C37.7237 66.4119 38.7729 66.8333 39.8669 66.8333H59.1169C60.211 66.8333 61.2602 66.4119 62.0338 65.6617C62.8073 64.9116 63.2419 63.8942 63.2419 62.8333V46.8333C63.2419 45.7724 62.8073 44.755 62.0338 44.0049C61.2602 43.2547 60.211 42.8333 59.1169 42.8333ZM60.4919 62.8333C60.4919 63.1869 60.3471 63.5261 60.0892 63.7761C59.8314 64.0261 59.4816 64.1666 59.1169 64.1666H39.8669C39.5023 64.1666 39.1525 64.0261 38.8947 63.7761C38.6368 63.5261 38.4919 63.1869 38.4919 62.8333V53.5H60.4919V62.8333ZM60.4919 50.8333H38.4919V46.8333C38.4919 46.4797 38.6368 46.1405 38.8947 45.8905C39.1525 45.6404 39.5023 45.5 39.8669 45.5H42.6169V46.8333C42.6169 47.1869 42.7618 47.5261 43.0197 47.7761C43.2775 48.0261 43.6273 48.1666 43.9919 48.1666C44.3566 48.1666 44.7064 48.0261 44.9642 47.7761C45.2221 47.5261 45.3669 47.1869 45.3669 46.8333V45.5H53.6169V46.8333C53.6169 47.1869 53.7618 47.5261 54.0197 47.7761C54.2775 48.0261 54.6273 48.1666 54.9919 48.1666C55.3566 48.1666 55.7064 48.0261 55.9642 47.7761C56.2221 47.5261 56.3669 47.1869 56.3669 46.8333V45.5H59.1169C59.4816 45.5 59.8314 45.6404 60.0892 45.8905C60.3471 46.1405 60.4919 46.4797 60.4919 46.8333V50.8333Z" fill="#0A7777"/>
<path d="M93.7675 69V67.858L96.7973 64.8878C97.0871 64.5952 97.3286 64.3352 97.5218 64.108C97.715 63.8807 97.8598 63.6605 97.9564 63.4474C98.053 63.2344 98.1013 63.0071 98.1013 62.7656C98.1013 62.4901 98.0388 62.2543 97.9138 62.0582C97.7888 61.8594 97.6169 61.706 97.3982 61.598C97.1794 61.4901 96.9309 61.4361 96.6525 61.4361C96.3655 61.4361 96.1141 61.4957 95.8982 61.6151C95.6823 61.7315 95.5147 61.8977 95.3954 62.1136C95.2789 62.3295 95.2206 62.5866 95.2206 62.8849H93.7164C93.7164 62.331 93.8428 61.8494 94.0956 61.4403C94.3485 61.0312 94.6965 60.7145 95.1397 60.4901C95.5857 60.2656 96.0971 60.1534 96.6738 60.1534C97.259 60.1534 97.7732 60.2628 98.2164 60.4815C98.6596 60.7003 99.0033 61 99.2476 61.3807C99.4948 61.7614 99.6184 62.196 99.6184 62.6847C99.6184 63.0114 99.5559 63.3324 99.4309 63.6477C99.3059 63.9631 99.0857 64.3125 98.7704 64.696C98.4579 65.0795 98.0189 65.544 97.4536 66.0895L95.9493 67.6193V67.679H99.7505V69H93.7675ZM104.255 69.1193C103.687 69.1193 103.178 69.0128 102.729 68.7997C102.28 68.5838 101.924 68.2884 101.66 67.9134C101.398 67.5384 101.259 67.1094 101.242 66.6264H102.776C102.804 66.9844 102.959 67.277 103.241 67.5043C103.522 67.7287 103.86 67.8409 104.255 67.8409C104.564 67.8409 104.84 67.7699 105.081 67.6278C105.323 67.4858 105.513 67.2884 105.652 67.0355C105.792 66.7827 105.86 66.4943 105.857 66.1705C105.86 65.8409 105.79 65.5483 105.648 65.2926C105.506 65.0369 105.312 64.8366 105.064 64.6918C104.817 64.544 104.533 64.4702 104.212 64.4702C103.951 64.4673 103.694 64.5156 103.441 64.6151C103.188 64.7145 102.988 64.8452 102.84 65.0071L101.412 64.7727L101.868 60.2727H106.931V61.5938H103.177L102.925 63.9077H102.976C103.138 63.7173 103.367 63.5597 103.662 63.4347C103.958 63.3068 104.282 63.2429 104.634 63.2429C105.162 63.2429 105.634 63.3679 106.049 63.6179C106.464 63.8651 106.79 64.206 107.029 64.6406C107.268 65.0753 107.387 65.5724 107.387 66.1321C107.387 66.7088 107.253 67.223 106.986 67.6747C106.722 68.1236 106.354 68.4773 105.883 68.7358C105.414 68.9915 104.871 69.1193 104.255 69.1193ZM112.799 64.0014V65.2713H108.87V64.0014H112.799ZM117.507 69.1193C116.873 69.1193 116.31 69.0128 115.819 68.7997C115.33 68.5866 114.947 68.2955 114.668 67.9261C114.393 67.554 114.257 67.1321 114.259 66.6605C114.257 66.294 114.336 65.9574 114.498 65.6506C114.66 65.3438 114.879 65.0881 115.154 64.8835C115.433 64.6761 115.742 64.544 116.083 64.4872V64.4276C115.634 64.3281 115.271 64.0994 114.992 63.7415C114.717 63.3807 114.58 62.9645 114.583 62.4929C114.58 62.044 114.705 61.6435 114.958 61.2912C115.211 60.9389 115.558 60.6619 115.998 60.4602C116.438 60.2557 116.941 60.1534 117.507 60.1534C118.066 60.1534 118.565 60.2557 119.002 60.4602C119.443 60.6619 119.789 60.9389 120.042 61.2912C120.298 61.6435 120.426 62.044 120.426 62.4929C120.426 62.9645 120.285 63.3807 120.004 63.7415C119.725 64.0994 119.366 64.3281 118.926 64.4276V64.4872C119.266 64.544 119.573 64.6761 119.846 64.8835C120.122 65.0881 120.34 65.3438 120.502 65.6506C120.667 65.9574 120.749 66.294 120.749 66.6605C120.749 67.1321 120.61 67.554 120.332 67.9261C120.053 68.2955 119.67 68.5866 119.181 68.7997C118.695 69.0128 118.137 69.1193 117.507 69.1193ZM117.507 67.9006C117.833 67.9006 118.117 67.8452 118.359 67.7344C118.6 67.6207 118.788 67.4616 118.921 67.2571C119.055 67.0526 119.123 66.8168 119.126 66.5497C119.123 66.2713 119.051 66.0256 118.908 65.8125C118.769 65.5966 118.578 65.4276 118.333 65.3054C118.092 65.1832 117.816 65.1222 117.507 65.1222C117.194 65.1222 116.916 65.1832 116.671 65.3054C116.427 65.4276 116.234 65.5966 116.092 65.8125C115.953 66.0256 115.884 66.2713 115.887 66.5497C115.884 66.8168 115.95 67.0526 116.083 67.2571C116.217 67.4588 116.404 67.6165 116.646 67.7301C116.89 67.8437 117.177 67.9006 117.507 67.9006ZM117.507 63.9247C117.774 63.9247 118.009 63.8707 118.214 63.7628C118.421 63.6548 118.585 63.5043 118.704 63.3111C118.823 63.1179 118.884 62.8949 118.887 62.642C118.884 62.392 118.825 62.1733 118.708 61.9858C118.592 61.7955 118.43 61.6491 118.222 61.5469C118.015 61.4418 117.776 61.3892 117.507 61.3892C117.231 61.3892 116.988 61.4418 116.778 61.5469C116.57 61.6491 116.408 61.7955 116.292 61.9858C116.178 62.1733 116.123 62.392 116.126 62.642C116.123 62.8949 116.18 63.1179 116.296 63.3111C116.416 63.5014 116.579 63.652 116.786 63.7628C116.997 63.8707 117.237 63.9247 117.507 63.9247ZM126.135 64.0014V65.2713H122.206V64.0014H126.135ZM127.435 69V67.858L130.465 64.8878C130.755 64.5952 130.997 64.3352 131.19 64.108C131.383 63.8807 131.528 63.6605 131.624 63.4474C131.721 63.2344 131.769 63.0071 131.769 62.7656C131.769 62.4901 131.707 62.2543 131.582 62.0582C131.457 61.8594 131.285 61.706 131.066 61.598C130.847 61.4901 130.599 61.4361 130.32 61.4361C130.033 61.4361 129.782 61.4957 129.566 61.6151C129.35 61.7315 129.183 61.8977 129.063 62.1136C128.947 62.3295 128.889 62.5866 128.889 62.8849H127.384C127.384 62.331 127.511 61.8494 127.764 61.4403C128.016 61.0312 128.364 60.7145 128.808 60.4901C129.254 60.2656 129.765 60.1534 130.342 60.1534C130.927 60.1534 131.441 60.2628 131.884 60.4815C132.328 60.7003 132.671 61 132.916 61.3807C133.163 61.7614 133.286 62.196 133.286 62.6847C133.286 63.0114 133.224 63.3324 133.099 63.6477C132.974 63.9631 132.754 64.3125 132.438 64.696C132.126 65.0795 131.687 65.544 131.122 66.0895L129.617 67.6193V67.679H133.418V69H127.435ZM134.889 69V67.858L137.918 64.8878C138.208 64.5952 138.45 64.3352 138.643 64.108C138.836 63.8807 138.981 63.6605 139.078 63.4474C139.174 63.2344 139.222 63.0071 139.222 62.7656C139.222 62.4901 139.16 62.2543 139.035 62.0582C138.91 61.8594 138.738 61.706 138.519 61.598C138.301 61.4901 138.052 61.4361 137.774 61.4361C137.487 61.4361 137.235 61.4957 137.019 61.6151C136.803 61.7315 136.636 61.8977 136.516 62.1136C136.4 62.3295 136.342 62.5866 136.342 62.8849H134.837C134.837 62.331 134.964 61.8494 135.217 61.4403C135.47 61.0312 135.818 60.7145 136.261 60.4901C136.707 60.2656 137.218 60.1534 137.795 60.1534C138.38 60.1534 138.894 60.2628 139.337 60.4815C139.781 60.7003 140.124 61 140.369 61.3807C140.616 61.7614 140.739 62.196 140.739 62.6847C140.739 63.0114 140.677 63.3324 140.552 63.6477C140.427 63.9631 140.207 64.3125 139.891 64.696C139.579 65.0795 139.14 65.544 138.575 66.0895L137.07 67.6193V67.679H140.872V69H134.889Z" fill="black"/>
<path d="M181.992 50.7946C181.992 50.9298 181.949 51.0494 181.862 51.1534L175.792 58.422C175.705 58.526 175.605 58.578 175.492 58.578C175.379 58.578 175.279 58.526 175.192 58.422L169.122 51.1534C169.035 51.0494 168.992 50.9298 168.992 50.7946C168.992 50.6594 169.035 50.5399 169.122 50.4359L169.774 49.656C169.86 49.552 169.96 49.5 170.073 49.5C170.186 49.5 170.286 49.552 170.373 49.656L175.492 55.786L180.611 49.656C180.698 49.552 180.798 49.5 180.911 49.5C181.024 49.5 181.124 49.552 181.21 49.656L181.862 50.4359C181.949 50.5399 181.992 50.6594 181.992 50.7946Z" fill="#0A7777"/>
<path d="M208.992 37.5V69.5" stroke="#A8A8A8" stroke-width="3"/>
<path d="M251.992 39.5C249.076 39.5034 246.28 40.6635 244.218 42.7256C242.155 44.7878 240.995 47.5837 240.992 50.5C240.988 52.8832 241.767 55.2018 243.208 57.1C243.208 57.1 243.508 57.495 243.557 57.552L251.992 67.5L260.431 57.547C260.475 57.494 260.776 57.1 260.776 57.1L260.777 57.097C262.217 55.1996 262.995 52.8821 262.992 50.5C262.989 47.5837 261.828 44.7878 259.766 42.7256C257.704 40.6635 254.908 39.5034 251.992 39.5V39.5ZM251.992 45.5C252.585 45.5 253.165 45.6759 253.659 46.0056C254.152 46.3352 254.537 46.8038 254.764 47.3519C254.991 47.9001 255.05 48.5033 254.934 49.0853C254.819 49.6672 254.533 50.2018 254.113 50.6213C253.694 51.0409 253.159 51.3266 252.577 51.4424C251.995 51.5581 251.392 51.4987 250.844 51.2716C250.296 51.0446 249.827 50.6601 249.498 50.1667C249.168 49.6734 248.992 49.0933 248.992 48.5C248.993 47.7046 249.309 46.942 249.872 46.3796C250.434 45.8171 251.197 45.5008 251.992 45.5V45.5ZM255.992 56.5H253.992V54.5H249.992V56.5H247.992V54.5C247.992 53.9697 248.203 53.4613 248.578 53.0864C248.953 52.7114 249.462 52.5005 249.992 52.5H253.992C254.522 52.5005 255.031 52.7114 255.406 53.0864C255.781 53.4613 255.991 53.9697 255.992 54.5V56.5Z" fill="#0A7777"/>
<path d="M295.853 61.2727H297.787L300.378 67.5966H300.481L303.071 61.2727H305.006V70H303.489V64.0043H303.408L300.996 69.9744H299.863L297.451 63.9915H297.37V70H295.853V61.2727ZM310.831 67.2472V63.4545H312.374V70H310.878V68.8366H310.81C310.662 69.2031 310.42 69.5028 310.081 69.7358C309.746 69.9687 309.333 70.0852 308.841 70.0852C308.412 70.0852 308.033 69.9901 307.704 69.7997C307.377 69.6065 307.121 69.3267 306.937 68.9602C306.752 68.5909 306.66 68.1449 306.66 67.6222V63.4545H308.202V67.3835C308.202 67.7983 308.316 68.1278 308.543 68.3722C308.77 68.6165 309.069 68.7386 309.438 68.7386C309.665 68.7386 309.885 68.6832 310.098 68.5724C310.312 68.4616 310.486 68.2969 310.623 68.0781C310.762 67.8565 310.831 67.5795 310.831 67.2472ZM313.96 70V63.4545H315.435V64.5668H315.511C315.648 64.1918 315.874 63.8991 316.189 63.6889C316.504 63.4759 316.881 63.3693 317.318 63.3693C317.761 63.3693 318.135 63.4773 318.439 63.6932C318.746 63.9062 318.962 64.1974 319.087 64.5668H319.155C319.3 64.2031 319.544 63.9134 319.888 63.6974C320.234 63.4787 320.645 63.3693 321.119 63.3693C321.722 63.3693 322.213 63.5597 322.594 63.9403C322.975 64.321 323.165 64.8764 323.165 65.6065V70H321.618V65.8452C321.618 65.4389 321.51 65.142 321.294 64.9545C321.078 64.7642 320.814 64.669 320.502 64.669C320.129 64.669 319.838 64.7855 319.628 65.0185C319.421 65.2486 319.317 65.5483 319.317 65.9176V70H317.804V65.7812C317.804 65.4432 317.702 65.1733 317.497 64.9716C317.296 64.7699 317.031 64.669 316.705 64.669C316.483 64.669 316.281 64.7259 316.1 64.8395C315.918 64.9503 315.773 65.108 315.665 65.3125C315.557 65.5142 315.503 65.75 315.503 66.0199V70H313.96ZM324.798 70V61.2727H326.341V64.5369H326.405C326.484 64.3778 326.596 64.2088 326.741 64.0298C326.886 63.848 327.082 63.6932 327.329 63.5653C327.576 63.4347 327.892 63.3693 328.275 63.3693C328.781 63.3693 329.237 63.4986 329.643 63.7571C330.052 64.0128 330.376 64.392 330.615 64.8949C330.856 65.3949 330.977 66.0085 330.977 66.7358C330.977 67.4545 330.859 68.0653 330.623 68.5682C330.388 69.071 330.067 69.4545 329.66 69.7188C329.254 69.983 328.794 70.1151 328.28 70.1151C327.905 70.1151 327.594 70.0526 327.346 69.9276C327.099 69.8026 326.9 69.652 326.75 69.4759C326.602 69.2969 326.487 69.1278 326.405 68.9688H326.315V70H324.798ZM326.311 66.7273C326.311 67.1506 326.37 67.5213 326.49 67.8395C326.612 68.1577 326.787 68.4062 327.014 68.5852C327.244 68.7614 327.522 68.8494 327.849 68.8494C328.19 68.8494 328.476 68.7585 328.706 68.5767C328.936 68.392 329.109 68.1406 329.226 67.8224C329.345 67.5014 329.405 67.1364 329.405 66.7273C329.405 66.321 329.346 65.9602 329.23 65.6449C329.113 65.3295 328.94 65.0824 328.71 64.9034C328.48 64.7244 328.193 64.6349 327.849 64.6349C327.52 64.6349 327.24 64.7216 327.01 64.8949C326.78 65.0682 326.605 65.3111 326.486 65.6236C326.369 65.9361 326.311 66.304 326.311 66.7273ZM334.172 70.1321C333.757 70.1321 333.384 70.0582 333.051 69.9105C332.722 69.7599 332.46 69.5384 332.267 69.2457C332.077 68.9531 331.982 68.5923 331.982 68.1634C331.982 67.794 332.05 67.4886 332.186 67.2472C332.323 67.0057 332.509 66.8125 332.744 66.6676C332.98 66.5227 333.246 66.4134 333.541 66.3395C333.84 66.2628 334.148 66.2074 334.466 66.1733C334.85 66.1335 335.161 66.098 335.399 66.0668C335.638 66.0327 335.811 65.9815 335.919 65.9134C336.03 65.8423 336.085 65.733 336.085 65.5852V65.5597C336.085 65.2386 335.99 64.9901 335.8 64.8139C335.609 64.6378 335.335 64.5497 334.977 64.5497C334.6 64.5497 334.3 64.6321 334.078 64.7969C333.859 64.9616 333.712 65.1562 333.635 65.3807L332.195 65.1761C332.308 64.7784 332.496 64.446 332.757 64.179C333.019 63.9091 333.338 63.7074 333.716 63.5739C334.094 63.4375 334.511 63.3693 334.969 63.3693C335.284 63.3693 335.598 63.4062 335.911 63.4801C336.223 63.554 336.509 63.6761 336.767 63.8466C337.026 64.0142 337.233 64.2429 337.389 64.5327C337.548 64.8224 337.628 65.1847 337.628 65.6193V70H336.145V69.1009H336.094C336 69.2827 335.868 69.4531 335.698 69.6122C335.53 69.7685 335.318 69.8949 335.063 69.9915C334.81 70.0852 334.513 70.1321 334.172 70.1321ZM334.573 68.9986C334.882 68.9986 335.151 68.9375 335.378 68.8153C335.605 68.6903 335.78 68.5256 335.902 68.321C336.027 68.1165 336.09 67.8935 336.09 67.652V66.8807C336.041 66.9205 335.959 66.9574 335.842 66.9915C335.729 67.0256 335.601 67.0554 335.459 67.081C335.317 67.1065 335.176 67.1293 335.037 67.1491C334.898 67.169 334.777 67.1861 334.675 67.2003C334.445 67.2315 334.239 67.2827 334.057 67.3537C333.875 67.4247 333.732 67.5241 333.627 67.652C333.521 67.777 333.469 67.9389 333.469 68.1378C333.469 68.4219 333.573 68.6364 333.78 68.7812C333.987 68.9261 334.252 68.9986 334.573 68.9986ZM339.179 70V63.4545H340.722V70H339.179ZM339.955 62.5256C339.71 62.5256 339.5 62.4446 339.324 62.2827C339.148 62.1179 339.06 61.9205 339.06 61.6903C339.06 61.4574 339.148 61.2599 339.324 61.098C339.5 60.9332 339.71 60.8509 339.955 60.8509C340.202 60.8509 340.412 60.9332 340.585 61.098C340.761 61.2599 340.85 61.4574 340.85 61.6903C340.85 61.9205 340.761 62.1179 340.585 62.2827C340.412 62.4446 340.202 62.5256 339.955 62.5256ZM344.119 68.8068L344.064 69.2756C344.024 69.6335 343.953 69.9972 343.851 70.3665C343.751 70.7386 343.646 71.081 343.535 71.3935C343.424 71.706 343.335 71.9517 343.267 72.1307H342.227C342.267 71.9574 342.321 71.7216 342.389 71.4233C342.46 71.125 342.528 70.7898 342.594 70.4176C342.659 70.0455 342.703 69.6676 342.726 69.2841L342.755 68.8068H344.119ZM350.203 61.2727V70H348.622V61.2727H350.203ZM353.39 66.1648V70H351.847V63.4545H353.321V64.5668H353.398C353.549 64.2003 353.789 63.9091 354.118 63.6932C354.451 63.4773 354.861 63.3693 355.35 63.3693C355.802 63.3693 356.195 63.4659 356.53 63.6591C356.868 63.8523 357.13 64.1321 357.314 64.4986C357.502 64.8651 357.594 65.3097 357.591 65.8324V70H356.049V66.071C356.049 65.6335 355.935 65.2912 355.708 65.044C355.483 64.7969 355.172 64.6733 354.775 64.6733C354.505 64.6733 354.265 64.733 354.054 64.8523C353.847 64.9687 353.684 65.1378 353.564 65.3594C353.448 65.581 353.39 65.8494 353.39 66.1648ZM361.589 70.1151C361.074 70.1151 360.614 69.983 360.208 69.7188C359.802 69.4545 359.481 69.071 359.245 68.5682C359.009 68.0653 358.891 67.4545 358.891 66.7358C358.891 66.0085 359.01 65.3949 359.249 64.8949C359.491 64.392 359.816 64.0128 360.225 63.7571C360.634 63.4986 361.09 63.3693 361.593 63.3693C361.976 63.3693 362.292 63.4347 362.539 63.5653C362.786 63.6932 362.982 63.848 363.127 64.0298C363.272 64.2088 363.384 64.3778 363.464 64.5369H363.527V61.2727H365.074V70H363.557V68.9688H363.464C363.384 69.1278 363.269 69.2969 363.118 69.4759C362.968 69.652 362.769 69.8026 362.522 69.9276C362.275 70.0526 361.964 70.1151 361.589 70.1151ZM362.019 68.8494C362.346 68.8494 362.624 68.7614 362.854 68.5852C363.084 68.4062 363.259 68.1577 363.378 67.8395C363.498 67.5213 363.557 67.1506 363.557 66.7273C363.557 66.304 363.498 65.9361 363.378 65.6236C363.262 65.3111 363.089 65.0682 362.858 64.8949C362.631 64.7216 362.351 64.6349 362.019 64.6349C361.675 64.6349 361.388 64.7244 361.158 64.9034C360.928 65.0824 360.755 65.3295 360.638 65.6449C360.522 65.9602 360.464 66.321 360.464 66.7273C360.464 67.1364 360.522 67.5014 360.638 67.8224C360.758 68.1406 360.932 68.392 361.162 68.5767C361.395 68.7585 361.681 68.8494 362.019 68.8494ZM366.718 70V63.4545H368.261V70H366.718ZM367.494 62.5256C367.249 62.5256 367.039 62.4446 366.863 62.2827C366.687 62.1179 366.599 61.9205 366.599 61.6903C366.599 61.4574 366.687 61.2599 366.863 61.098C367.039 60.9332 367.249 60.8509 367.494 60.8509C367.741 60.8509 367.951 60.9332 368.124 61.098C368.301 61.2599 368.389 61.4574 368.389 61.6903C368.389 61.9205 368.301 62.1179 368.124 62.2827C367.951 62.4446 367.741 62.5256 367.494 62.5256ZM371.731 70.1321C371.316 70.1321 370.942 70.0582 370.61 69.9105C370.28 69.7599 370.019 69.5384 369.826 69.2457C369.635 68.9531 369.54 68.5923 369.54 68.1634C369.54 67.794 369.608 67.4886 369.745 67.2472C369.881 67.0057 370.067 66.8125 370.303 66.6676C370.539 66.5227 370.804 66.4134 371.1 66.3395C371.398 66.2628 371.706 66.2074 372.025 66.1733C372.408 66.1335 372.719 66.098 372.958 66.0668C373.196 66.0327 373.37 65.9815 373.478 65.9134C373.589 65.8423 373.644 65.733 373.644 65.5852V65.5597C373.644 65.2386 373.549 64.9901 373.358 64.8139C373.168 64.6378 372.894 64.5497 372.536 64.5497C372.158 64.5497 371.858 64.6321 371.637 64.7969C371.418 64.9616 371.27 65.1562 371.194 65.3807L369.753 65.1761C369.867 64.7784 370.054 64.446 370.316 64.179C370.577 63.9091 370.897 63.7074 371.275 63.5739C371.652 63.4375 372.07 63.3693 372.527 63.3693C372.843 63.3693 373.157 63.4062 373.469 63.4801C373.782 63.554 374.067 63.6761 374.326 63.8466C374.584 64.0142 374.792 64.2429 374.948 64.5327C375.107 64.8224 375.187 65.1847 375.187 65.6193V70H373.704V69.1009H373.652C373.559 69.2827 373.427 69.4531 373.256 69.6122C373.089 69.7685 372.877 69.8949 372.621 69.9915C372.368 70.0852 372.071 70.1321 371.731 70.1321ZM372.131 68.9986C372.441 68.9986 372.709 68.9375 372.937 68.8153C373.164 68.6903 373.339 68.5256 373.461 68.321C373.586 68.1165 373.648 67.8935 373.648 67.652V66.8807C373.6 66.9205 373.518 66.9574 373.401 66.9915C373.287 67.0256 373.16 67.0554 373.018 67.081C372.875 67.1065 372.735 67.1293 372.596 67.1491C372.456 67.169 372.336 67.1861 372.233 67.2003C372.003 67.2315 371.797 67.2827 371.616 67.3537C371.434 67.4247 371.29 67.5241 371.185 67.652C371.08 67.777 371.027 67.9389 371.027 68.1378C371.027 68.4219 371.131 68.6364 371.339 68.7812C371.546 68.9261 371.81 68.9986 372.131 68.9986Z" fill="black"/>
<path d="M428.992 50.7946C428.992 50.9298 428.945 51.0494 428.852 51.1534L422.315 58.422C422.221 58.526 422.114 58.578 421.992 58.578C421.87 58.578 421.763 58.526 421.669 58.422L415.132 51.1534C415.039 51.0494 414.992 50.9298 414.992 50.7946C414.992 50.6594 415.039 50.5399 415.132 50.4359L415.834 49.656C415.927 49.552 416.035 49.5 416.156 49.5C416.278 49.5 416.385 49.552 416.479 49.656L421.992 55.786L427.505 49.656C427.598 49.552 427.706 49.5 427.828 49.5C427.949 49.5 428.057 49.552 428.15 49.656L428.852 50.4359C428.945 50.5399 428.992 50.6594 428.992 50.7946Z" fill="#0A7777"/>
<path d="M480.21 58.188C482.207 55.5453 483.101 52.2689 482.714 49.0143C482.327 45.7596 480.687 42.7666 478.122 40.6342C475.557 38.5018 472.256 37.3872 468.88 37.5133C465.504 37.6395 462.301 38.9971 459.913 41.3146C457.525 43.6321 456.127 46.7385 455.999 50.0124C455.872 53.2863 457.024 56.4863 459.225 58.972C461.425 61.4578 464.513 63.0461 467.87 63.4191C471.226 63.7922 474.605 62.9224 477.328 60.984H477.326C477.388 61.064 477.454 61.14 477.528 61.214L485.469 68.914C485.856 69.2892 486.38 69.5002 486.927 69.5004C487.475 69.5005 487.999 69.29 488.386 68.915C488.773 68.5399 488.991 68.0312 488.991 67.5007C488.991 66.9701 488.774 66.4612 488.387 66.086L480.447 58.386C480.373 58.3136 480.294 58.2467 480.21 58.186V58.188ZM480.742 50.5C480.742 51.9445 480.448 53.3749 479.878 54.7095C479.308 56.0441 478.473 57.2567 477.419 58.2781C476.366 59.2996 475.115 60.1098 473.739 60.6626C472.363 61.2154 470.888 61.5 469.398 61.5C467.908 61.5 466.433 61.2154 465.057 60.6626C463.681 60.1098 462.43 59.2996 461.377 58.2781C460.323 57.2567 459.488 56.0441 458.918 54.7095C458.348 53.3749 458.054 51.9445 458.054 50.5C458.054 47.5826 459.249 44.7847 461.377 42.7218C463.504 40.6589 466.389 39.5 469.398 39.5C472.407 39.5 475.292 40.6589 477.419 42.7218C479.547 44.7847 480.742 47.5826 480.742 50.5V50.5Z" fill="#0A7777"/>
<path d="M104.789 50H101.092V39.0909H104.863C105.947 39.0909 106.877 39.3093 107.655 39.7461C108.436 40.1793 109.036 40.8026 109.455 41.6158C109.874 42.429 110.084 43.402 110.084 44.5348C110.084 45.6712 109.872 46.6477 109.45 47.4645C109.031 48.2812 108.425 48.908 107.633 49.3448C106.845 49.7816 105.897 50 104.789 50ZM103.068 48.2901H104.693C105.453 48.2901 106.087 48.1516 106.595 47.8746C107.102 47.5941 107.484 47.1768 107.74 46.6229C107.996 46.0653 108.123 45.3693 108.123 44.5348C108.123 43.7003 107.996 43.0078 107.74 42.4574C107.484 41.9034 107.106 41.4897 106.605 41.2163C106.108 40.9393 105.49 40.8008 104.752 40.8008H103.068V48.2901ZM114.23 50.1651C113.712 50.1651 113.245 50.0728 112.83 49.8881C112.418 49.6999 112.091 49.4229 111.849 49.0572C111.611 48.6914 111.492 48.2404 111.492 47.7042C111.492 47.2425 111.578 46.8608 111.748 46.5589C111.919 46.2571 112.151 46.0156 112.446 45.8345C112.741 45.6534 113.073 45.5167 113.442 45.4244C113.815 45.3285 114.2 45.2592 114.598 45.2166C115.077 45.1669 115.466 45.1225 115.765 45.0835C116.063 45.0408 116.279 44.9769 116.414 44.8917C116.553 44.8029 116.622 44.6662 116.622 44.4815V44.4496C116.622 44.0483 116.503 43.7376 116.265 43.5174C116.027 43.2972 115.685 43.1871 115.237 43.1871C114.765 43.1871 114.39 43.2901 114.113 43.4961C113.84 43.7021 113.655 43.9453 113.559 44.2259L111.759 43.9702C111.901 43.473 112.135 43.0575 112.462 42.7237C112.789 42.3864 113.188 42.1342 113.66 41.9673C114.133 41.7969 114.655 41.7116 115.227 41.7116C115.621 41.7116 116.013 41.7578 116.404 41.8501C116.794 41.9425 117.151 42.0952 117.474 42.3082C117.798 42.5178 118.057 42.8036 118.252 43.1658C118.451 43.5281 118.55 43.9808 118.55 44.5241V50H116.697V48.8761H116.633C116.516 49.1033 116.35 49.3164 116.137 49.5153C115.928 49.7106 115.663 49.8686 115.344 49.9893C115.028 50.1065 114.657 50.1651 114.23 50.1651ZM114.731 48.7482C115.118 48.7482 115.454 48.6719 115.738 48.5192C116.022 48.3629 116.24 48.157 116.393 47.9013C116.549 47.6456 116.627 47.3668 116.627 47.065V46.1009C116.567 46.1506 116.464 46.1967 116.318 46.2393C116.176 46.282 116.017 46.3192 115.839 46.3512C115.662 46.3832 115.486 46.4116 115.312 46.4364C115.138 46.4613 114.987 46.4826 114.859 46.5004C114.571 46.5394 114.314 46.6033 114.087 46.6921C113.859 46.7809 113.68 46.9052 113.549 47.065C113.417 47.2212 113.352 47.4237 113.352 47.6722C113.352 48.0273 113.481 48.2955 113.74 48.4766C114 48.6577 114.33 48.7482 114.731 48.7482ZM124.575 41.8182V43.3097H119.871V41.8182H124.575ZM121.033 39.858H122.961V47.5391C122.961 47.7983 123 47.9972 123.078 48.1357C123.16 48.2706 123.266 48.3629 123.398 48.4126C123.529 48.4624 123.675 48.4872 123.834 48.4872C123.955 48.4872 124.065 48.4783 124.165 48.4606C124.268 48.4428 124.346 48.4268 124.399 48.4126L124.724 49.9201C124.621 49.9556 124.474 49.9947 124.282 50.0373C124.094 50.0799 123.863 50.1048 123.589 50.1119C123.106 50.1261 122.671 50.0533 122.284 49.8935C121.897 49.7301 121.59 49.478 121.363 49.1371C121.139 48.7962 121.029 48.37 121.033 47.8587V39.858ZM129.722 50.1598C128.902 50.1598 128.193 49.9893 127.596 49.6484C127.003 49.304 126.547 48.8175 126.227 48.1889C125.908 47.5568 125.748 46.8129 125.748 45.957C125.748 45.1154 125.908 44.3768 126.227 43.7411C126.551 43.1019 127.002 42.6048 127.58 42.2496C128.159 41.891 128.839 41.7116 129.621 41.7116C130.125 41.7116 130.601 41.7933 131.048 41.9567C131.499 42.1165 131.897 42.3651 132.241 42.7024C132.589 43.0398 132.863 43.4695 133.062 43.9915C133.261 44.5099 133.36 45.1278 133.36 45.8452V46.4364H126.654V45.1367H131.512C131.508 44.7674 131.428 44.4389 131.272 44.1513C131.116 43.8601 130.897 43.631 130.617 43.4641C130.34 43.2972 130.017 43.2138 129.647 43.2138C129.253 43.2138 128.907 43.3097 128.609 43.5014C128.31 43.6896 128.078 43.9382 127.911 44.2472C127.747 44.5526 127.664 44.8881 127.66 45.2539V46.3885C127.66 46.8643 127.747 47.2727 127.921 47.6136C128.095 47.951 128.339 48.2102 128.651 48.3913C128.964 48.5689 129.329 48.6577 129.748 48.6577C130.029 48.6577 130.283 48.6186 130.51 48.5405C130.737 48.4588 130.935 48.3398 131.101 48.1836C131.268 48.0273 131.394 47.8338 131.48 47.603L133.28 47.8054C133.166 48.2812 132.95 48.6967 132.63 49.0518C132.314 49.4034 131.909 49.6768 131.416 49.8722C130.922 50.0639 130.357 50.1598 129.722 50.1598Z" fill="black"/>
<path d="M327.156 50V39.0909H329.132V48.3434H333.937V50H327.156ZM339.136 50.1598C338.337 50.1598 337.644 49.984 337.058 49.6325C336.472 49.2809 336.018 48.7891 335.695 48.157C335.375 47.5249 335.215 46.7862 335.215 45.9411C335.215 45.0959 335.375 44.3555 335.695 43.7198C336.018 43.0842 336.472 42.5906 337.058 42.239C337.644 41.8874 338.337 41.7116 339.136 41.7116C339.935 41.7116 340.627 41.8874 341.213 42.239C341.799 42.5906 342.252 43.0842 342.571 43.7198C342.895 44.3555 343.056 45.0959 343.056 45.9411C343.056 46.7862 342.895 47.5249 342.571 48.157C342.252 48.7891 341.799 49.2809 341.213 49.6325C340.627 49.984 339.935 50.1598 339.136 50.1598ZM339.146 48.6151C339.58 48.6151 339.942 48.4961 340.233 48.2582C340.524 48.0167 340.741 47.6935 340.883 47.2887C341.028 46.8839 341.101 46.4329 341.101 45.9357C341.101 45.435 341.028 44.9822 340.883 44.5774C340.741 44.169 340.524 43.8441 340.233 43.6026C339.942 43.3612 339.58 43.2404 339.146 43.2404C338.702 43.2404 338.333 43.3612 338.038 43.6026C337.747 43.8441 337.529 44.169 337.383 44.5774C337.241 44.9822 337.17 45.435 337.17 45.9357C337.17 46.4329 337.241 46.8839 337.383 47.2887C337.529 47.6935 337.747 48.0167 338.038 48.2582C338.333 48.4961 338.702 48.6151 339.146 48.6151ZM348.262 50.1598C347.445 50.1598 346.744 49.9805 346.158 49.6218C345.575 49.2631 345.126 48.7678 344.81 48.1357C344.497 47.5 344.341 46.7685 344.341 45.9411C344.341 45.1101 344.501 44.3768 344.821 43.7411C345.14 43.1019 345.591 42.6048 346.174 42.2496C346.76 41.891 347.452 41.7116 348.251 41.7116C348.915 41.7116 349.503 41.8342 350.014 42.0792C350.529 42.3207 350.939 42.6634 351.245 43.1072C351.55 43.5476 351.724 44.0625 351.767 44.652H349.924C349.849 44.2578 349.671 43.9293 349.391 43.6665C349.114 43.4002 348.743 43.267 348.278 43.267C347.883 43.267 347.537 43.3736 347.239 43.5866C346.941 43.7962 346.708 44.098 346.541 44.4922C346.378 44.8864 346.296 45.3587 346.296 45.9091C346.296 46.4666 346.378 46.946 346.541 47.3473C346.705 47.745 346.934 48.0522 347.228 48.2688C347.527 48.4819 347.876 48.5884 348.278 48.5884C348.562 48.5884 348.816 48.5352 349.039 48.4286C349.267 48.3185 349.457 48.1605 349.609 47.9545C349.762 47.7486 349.867 47.4982 349.924 47.2035H351.767C351.72 47.7823 351.55 48.2955 351.255 48.7429C350.961 49.1868 350.559 49.5348 350.051 49.7869C349.544 50.0355 348.947 50.1598 348.262 50.1598ZM355.704 50.1651C355.186 50.1651 354.719 50.0728 354.304 49.8881C353.892 49.6999 353.565 49.4229 353.323 49.0572C353.085 48.6914 352.966 48.2404 352.966 47.7042C352.966 47.2425 353.052 46.8608 353.222 46.5589C353.393 46.2571 353.625 46.0156 353.92 45.8345C354.215 45.6534 354.547 45.5167 354.916 45.4244C355.289 45.3285 355.674 45.2592 356.072 45.2166C356.551 45.1669 356.94 45.1225 357.239 45.0835C357.537 45.0408 357.753 44.9769 357.888 44.8917C358.027 44.8029 358.096 44.6662 358.096 44.4815V44.4496C358.096 44.0483 357.977 43.7376 357.739 43.5174C357.501 43.2972 357.159 43.1871 356.711 43.1871C356.239 43.1871 355.864 43.2901 355.587 43.4961C355.314 43.7021 355.129 43.9453 355.033 44.2259L353.233 43.9702C353.375 43.473 353.609 43.0575 353.936 42.7237C354.263 42.3864 354.662 42.1342 355.134 41.9673C355.607 41.7969 356.129 41.7116 356.701 41.7116C357.095 41.7116 357.487 41.7578 357.878 41.8501C358.268 41.9425 358.625 42.0952 358.948 42.3082C359.272 42.5178 359.531 42.8036 359.726 43.1658C359.925 43.5281 360.024 43.9808 360.024 44.5241V50H358.171V48.8761H358.107C357.99 49.1033 357.824 49.3164 357.611 49.5153C357.402 49.7106 357.137 49.8686 356.818 49.9893C356.502 50.1065 356.131 50.1651 355.704 50.1651ZM356.205 48.7482C356.592 48.7482 356.928 48.6719 357.212 48.5192C357.496 48.3629 357.714 48.157 357.867 47.9013C358.023 47.6456 358.101 47.3668 358.101 47.065V46.1009C358.041 46.1506 357.938 46.1967 357.792 46.2393C357.65 46.282 357.491 46.3192 357.313 46.3512C357.136 46.3832 356.96 46.4116 356.786 46.4364C356.612 46.4613 356.461 46.4826 356.333 46.5004C356.045 46.5394 355.788 46.6033 355.561 46.6921C355.333 46.7809 355.154 46.9052 355.023 47.065C354.891 47.2212 354.826 47.4237 354.826 47.6722C354.826 48.0273 354.955 48.2955 355.214 48.4766C355.474 48.6577 355.804 48.7482 356.205 48.7482ZM366.049 41.8182V43.3097H361.345V41.8182H366.049ZM362.507 39.858H364.435V47.5391C364.435 47.7983 364.474 47.9972 364.552 48.1357C364.634 48.2706 364.74 48.3629 364.872 48.4126C365.003 48.4624 365.149 48.4872 365.308 48.4872C365.429 48.4872 365.539 48.4783 365.639 48.4606C365.742 48.4428 365.82 48.4268 365.873 48.4126L366.198 49.9201C366.095 49.9556 365.948 49.9947 365.756 50.0373C365.568 50.0799 365.337 50.1048 365.063 50.1119C364.58 50.1261 364.145 50.0533 363.758 49.8935C363.371 49.7301 363.064 49.478 362.837 49.1371C362.613 48.7962 362.503 48.37 362.507 47.8587V39.858ZM367.662 50V41.8182H369.59V50H367.662ZM368.631 40.657C368.326 40.657 368.063 40.5558 367.843 40.3533C367.622 40.1474 367.512 39.9006 367.512 39.6129C367.512 39.3217 367.622 39.0749 367.843 38.8725C368.063 38.6665 368.326 38.5636 368.631 38.5636C368.94 38.5636 369.203 38.6665 369.419 38.8725C369.64 39.0749 369.75 39.3217 369.75 39.6129C369.75 39.9006 369.64 40.1474 369.419 40.3533C369.203 40.5558 368.94 40.657 368.631 40.657ZM375.142 50.1598C374.343 50.1598 373.65 49.984 373.064 49.6325C372.478 49.2809 372.024 48.7891 371.701 48.157C371.381 47.5249 371.221 46.7862 371.221 45.9411C371.221 45.0959 371.381 44.3555 371.701 43.7198C372.024 43.0842 372.478 42.5906 373.064 42.239C373.65 41.8874 374.343 41.7116 375.142 41.7116C375.941 41.7116 376.633 41.8874 377.219 42.239C377.805 42.5906 378.258 43.0842 378.577 43.7198C378.9 44.3555 379.062 45.0959 379.062 45.9411C379.062 46.7862 378.9 47.5249 378.577 48.157C378.258 48.7891 377.805 49.2809 377.219 49.6325C376.633 49.984 375.941 50.1598 375.142 50.1598ZM375.152 48.6151C375.585 48.6151 375.948 48.4961 376.239 48.2582C376.53 48.0167 376.747 47.6935 376.889 47.2887C377.034 46.8839 377.107 46.4329 377.107 45.9357C377.107 45.435 377.034 44.9822 376.889 44.5774C376.747 44.169 376.53 43.8441 376.239 43.6026C375.948 43.3612 375.585 43.2404 375.152 43.2404C374.708 43.2404 374.339 43.3612 374.044 43.6026C373.753 43.8441 373.535 44.169 373.389 44.5774C373.247 44.9822 373.176 45.435 373.176 45.9357C373.176 46.4329 373.247 46.8839 373.389 47.2887C373.535 47.6935 373.753 48.0167 374.044 48.2582C374.339 48.4961 374.708 48.6151 375.152 48.6151ZM382.627 45.206V50H380.699V41.8182H382.542V43.2085H382.638C382.826 42.7504 383.126 42.3864 383.538 42.1165C383.953 41.8466 384.466 41.7116 385.077 41.7116C385.642 41.7116 386.134 41.8324 386.553 42.0739C386.975 42.3153 387.302 42.6651 387.533 43.1232C387.767 43.5813 387.883 44.1371 387.879 44.7905V50H385.951V45.0888C385.951 44.5419 385.809 44.114 385.525 43.805C385.244 43.4961 384.855 43.3416 384.358 43.3416C384.021 43.3416 383.721 43.4162 383.458 43.5653C383.199 43.7109 382.994 43.9222 382.845 44.1992C382.7 44.4762 382.627 44.8118 382.627 45.206Z" fill="black"/>
</g>
<defs>
<filter id="filter0_d_7_874" x="0" y="0" width="584" height="116" filterUnits="userSpaceOnUse" color-interpolation-filters="sRGB">
<feFlood flood-opacity="0" result="BackgroundImageFix"/>
<feColorMatrix in="SourceAlpha" type="matrix" values="0 0 0 0 0 0 0 0 0 0 0 0 0 0 0 0 0 0 127 0" result="hardAlpha"/>
<feOffset dy="4"/>
<feGaussianBlur stdDeviation="4"/>
<feComposite in2="hardAlpha" operator="out"/>
<feColorMatrix type="matrix" values="0 0 0 0 0.658333 0 0 0 0 0.658333 0 0 0 0 0.658333 0 0 0 0.25 0"/>
<feBlend mode="normal" in2="BackgroundImageFix" result="effect1_dropShadow_7_874"/>
<feBlend mode="normal" in="SourceGraphic" in2="effect1_dropShadow_7_874" result="shape"/>
</filter>
</defs>
</svg>
