<svg width="110" height="25" viewBox="0 0 110 25" fill="none" xmlns="http://www.w3.org/2000/svg">
<g clip-path="url(#clip0_7_939)">
<path d="M34.3515 3.86422C34.15 3.11728 33.7569 2.43633 33.2114 1.88918C32.6659 1.34203 31.9871 0.947779 31.2425 0.74569C28.5163 0 17.5455 0 17.5455 0C17.5455 0 6.57432 0.0226293 3.84859 0.768319C3.10401 0.970441 2.4252 1.36471 1.87977 1.91185C1.33433 2.459 0.941296 3.13994 0.739806 3.88685C-0.0847648 8.74569 -0.404667 16.1489 0.762364 20.8131C0.963855 21.5601 1.35689 22.241 1.90232 22.7881C2.44776 23.3353 3.12657 23.7296 3.87115 23.9317C6.59709 24.6774 17.5681 24.6774 17.5681 24.6774C17.5681 24.6774 28.5391 24.6774 31.265 23.9317C32.0096 23.7296 32.6884 23.3353 33.2338 22.7881C33.7793 22.241 34.1723 21.5601 34.3738 20.8131C35.2433 15.9476 35.5114 8.54892 34.3513 3.86444L34.3515 3.86422Z" fill="#FF0000"/>
<path d="M14.0536 17.6266L23.1548 12.3387L14.0536 7.05054V17.6266Z" fill="white"/>
<path d="M105.539 7.16371C106.733 7.16371 107.634 7.38957 108.265 7.81888C108.896 8.2484 109.346 8.92621 109.617 9.85293C109.887 10.7794 110 12.0447 110 13.6719V16.3161H104.21V17.1294L104.3 19.3667C104.368 19.8639 104.48 20.2256 104.661 20.4514C104.841 20.6775 105.134 20.7904 105.517 20.7904C106.035 20.7904 106.395 20.5872 106.575 20.1805C106.778 19.7736 106.868 19.0956 106.891 18.1691L109.887 18.3499C109.91 18.4855 109.91 18.6663 109.91 18.8922C109.91 20.3159 109.526 21.3781 108.738 22.0786C107.95 22.779 106.868 23.1406 105.449 23.1406C103.737 23.1406 102.543 22.5984 101.867 21.5363C101.191 20.474 100.831 18.8016 100.831 16.5646V13.8301C100.907 9.98849 101.581 7.17491 105.539 7.16371V7.16371ZM63.8853 7.45746V18.7792C63.8853 19.4572 63.9528 19.9544 64.1105 20.2482C64.4304 20.8764 65.2594 20.7159 65.71 20.4064C65.9701 20.23 66.1797 19.9886 66.3182 19.7059V7.45724H69.7649V22.8919H67.0615L66.7687 20.9937H66.7013C65.9579 22.4174 64.8538 23.1404 63.3897 23.1404C61.1359 23.1348 60.5844 21.5059 60.4532 19.8516L60.4446 19.735C60.4284 19.4845 60.4188 19.2335 60.416 18.9825V7.45746H63.8851H63.8853ZM81.6598 7.45746V18.7792C81.6598 19.4572 81.7272 19.9544 81.8849 20.2482C82.205 20.8764 83.0339 20.7159 83.4844 20.4064C83.7445 20.23 83.9542 19.9886 84.0926 19.7059V7.45724H87.5394V22.8919H84.836L84.5432 20.9937H84.4757C83.7324 22.4174 82.6283 23.1404 81.1641 23.1404C78.9104 23.1348 78.3589 21.5059 78.2276 19.8516L78.219 19.735C78.2028 19.4845 78.1933 19.2335 78.1905 18.9825V7.45746H81.6598ZM53.8828 7.16371C55.0092 7.16371 55.9329 7.38957 56.6088 7.86414C57.2844 8.33871 57.8026 9.06198 58.118 10.0562C58.4334 11.0506 58.5911 12.3837 58.5911 14.0335V16.2706C58.5911 17.9204 58.4334 19.2312 58.118 20.2253C57.8026 21.22 57.307 21.943 56.6088 22.4176C55.9105 22.8695 54.9641 23.118 53.7928 23.118C52.5761 23.1406 51.63 22.8922 50.9317 22.4402C50.2335 21.9656 49.7376 21.2424 49.445 20.2482C49.152 19.2538 49.0168 17.943 49.0168 16.2934V14.0559C49.0168 12.4062 49.1745 11.0503 49.5125 10.0559C49.8504 9.03914 50.3684 8.31586 51.0894 7.86414C51.8102 7.41198 52.7338 7.16349 53.8828 7.16349V7.16371ZM92.9461 0.97168V9.10702H92.9687C93.2841 8.51952 93.6895 8.04496 94.2528 7.68332C94.7788 7.32852 95.3985 7.13967 96.0324 7.14108C96.866 7.14108 97.4967 7.36694 97.9698 7.79625C98.4429 8.2484 98.7809 8.94884 98.9835 9.9206C99.18 10.862 99.2918 12.1639 99.2986 13.8057L99.2989 13.9659V16.4064C99.2989 18.6887 99.006 20.3837 98.4653 21.4684C97.9024 22.5531 97.0462 23.0956 95.8747 23.0956C95.2215 23.0956 94.6357 22.9374 94.0951 22.6437C93.617 22.3642 93.2206 21.9634 92.9457 21.4816L92.901 21.4006H92.8336L92.4731 22.8695H89.612V0.971895H92.9461V0.97168ZM79.159 1.76263V4.56457H75.7348V22.8919H72.3557V4.56478H68.909V1.76284H79.1592L79.159 1.76263ZM42.0106 1.76263L42.0127 1.77125C42.0456 1.91802 42.501 3.94927 43.0021 6.31586L43.0416 6.50336L43.1013 6.78677L43.1413 6.97707L43.1613 7.07254L43.2012 7.26392L43.2212 7.35983L43.2609 7.55185L43.319 7.83267C43.6573 9.47146 43.9802 11.115 44.1734 12.2934H44.2636C44.4486 11.2363 44.7174 9.88353 45.004 8.50228L45.0792 8.14151C45.117 7.9609 45.1548 7.7803 45.193 7.60013L45.2519 7.3206C45.6411 5.49018 46.0419 3.66227 46.4544 1.83698L46.4608 1.80789L46.4711 1.76263H49.9179L45.9304 16.0223V22.8695H42.5288V16.0447H42.5062L38.5638 1.76241H42.0106V1.76263ZM53.8151 9.55896C53.3421 9.55896 53.0267 9.80767 52.8241 10.3275C52.6213 10.8471 52.5312 11.6381 52.5312 12.7456V17.559C52.5312 18.6889 52.6213 19.5249 52.8015 20.0223C52.9818 20.5193 53.3197 20.768 53.8151 20.768C54.2882 20.768 54.6262 20.5193 54.829 20.0223C55.0318 19.5249 55.1218 18.6889 55.1218 17.559V12.7454C55.1218 11.6381 55.0316 10.8245 54.829 10.3273C54.6262 9.80767 54.2882 9.55896 53.8151 9.55896V9.55896ZM93.5544 10.0111C93.2798 10.2654 93.0845 10.579 92.9683 10.971L92.9461 11.0506V19.8187C93.2254 20.2932 93.622 20.6096 94.3203 20.6322C94.6808 20.6322 94.9734 20.4967 95.199 20.2256C95.4242 19.9544 95.5818 19.5023 95.6719 18.8695C95.7584 18.2622 95.8036 17.4256 95.807 16.36V14.2144C95.807 12.9941 95.7619 12.0676 95.6944 11.4122C95.6042 10.7568 95.4918 10.2822 95.289 10.0111C94.8969 9.44603 94.05 9.45293 93.5544 10.0111ZM105.472 9.49129C105.089 9.51392 104.818 9.62685 104.661 9.8303C104.48 10.0562 104.368 10.3952 104.3 10.8924C104.234 11.3794 104.211 13.082 104.21 13.1501V14.2596H106.733V13.2812V13.2999C106.732 13.6419 106.725 13.1014 106.709 12.4378L106.707 12.3486C106.693 11.7654 106.672 11.1152 106.643 10.8924C106.575 10.3725 106.463 10.0109 106.283 9.80767C106.102 9.60422 105.832 9.49129 105.472 9.49129H105.472Z" fill="#282828"/>
</g>
<defs>
<clipPath id="clip0_7_939">
<rect width="110" height="25" fill="white"/>
</clipPath>
</defs>
</svg>
